<svg preserveAspectRatio="none" width="100%" height="100%" overflow="visible" style="display: block;" viewBox="0 0 17 17" fill="none" xmlns="http://www.w3.org/2000/svg">
<g id="Frame 315013">
<rect x="0.25" y="0.25" width="16.5" height="16.5" rx="8.25" fill="var(--fill-0, #210250)"/>
<rect x="0.25" y="0.25" width="16.5" height="16.5" rx="8.25" stroke="var(--stroke-0, white)" stroke-width="0.5"/>
<path id="Vector" d="M10.732 12.439C10.732 12.7493 10.4811 13 10.1704 13C9.85977 13 9.60886 12.7493 9.60886 12.439C9.60886 12.1286 9.85977 11.878 10.1704 11.878C10.4811 11.878 10.732 12.1286 10.732 12.439ZM4.3518 5.313C4.3518 5.00265 4.6027 4.75199 4.91335 4.75199C5.22399 4.75199 5.4749 5.00265 5.4749 5.313C5.4749 5.62334 5.22399 5.87401 4.91335 5.87401C4.6027 5.87401 4.3518 5.62334 4.3518 5.313ZM12.6078 10.935C12.6078 11.2454 12.3569 11.496 12.0462 11.496C11.7356 11.496 11.4847 11.2454 11.4847 10.935C11.4847 10.6247 11.7356 10.374 12.0462 10.374C12.3569 10.374 12.6078 10.6247 12.6078 10.935ZM6.98033 4.93103C6.98033 4.62069 7.23124 4.37003 7.54188 4.37003C7.85253 4.37003 8.10343 4.62069 8.10343 4.93103C8.10343 5.24138 7.85253 5.49204 7.54188 5.49204C7.23124 5.49204 6.98033 5.24138 6.98033 4.93103ZM11.1143 6.43501C11.1143 6.12467 11.3652 5.87401 11.6758 5.87401C11.9865 5.87401 12.2374 6.12467 12.2374 6.43501C12.2374 6.74536 11.9865 6.99602 11.6758 6.99602C11.3652 6.99602 11.1143 6.74536 11.1143 6.43501ZM11.867 4.56101C11.867 4.25066 12.1179 4 12.4286 4C12.7392 4 12.9901 4.25066 12.9901 4.56101C12.9901 4.87135 12.7392 5.12202 12.4286 5.12202C12.1179 5.12202 11.867 4.87135 11.867 4.56101ZM12.8348 9.18037C12.7751 9.22812 12.6914 9.25199 12.6197 9.25199C12.5003 9.25199 12.3927 9.19231 12.321 9.09682C12.3091 9.08488 12.1538 8.88196 11.879 8.88196C11.7475 8.88196 11.64 8.91777 11.5444 8.98939C11.3772 9.10875 11.1382 9.08488 11.0187 8.91777C10.8992 8.75066 10.9231 8.51194 11.0904 8.39257C11.3174 8.22546 11.5922 8.12997 11.879 8.12997C12.4166 8.12997 12.7989 8.46419 12.9304 8.66711C13.0499 8.83422 13.014 9.07294 12.8348 9.19231V9.18037ZM9.13095 4.14324C9.26238 3.98806 9.48939 3.95225 9.65666 4.08355C9.6925 4.10743 10.4213 4.70424 10.3616 5.71883C10.3377 6.11273 10.1824 6.49469 9.90756 6.86472C9.83587 6.96021 9.7164 7.00796 9.60886 7.00796C9.52523 7.00796 9.45354 6.98408 9.38186 6.93634C9.21458 6.81698 9.17874 6.57825 9.31017 6.41114C9.48939 6.17241 9.59692 5.92175 9.60886 5.67109C9.64471 5.06233 9.20264 4.69231 9.19069 4.68037C9.03537 4.54907 8.99952 4.31034 9.13095 4.15517V4.14324ZM9.60886 10.1233C9.59692 10.1592 9.57302 10.2666 9.45354 10.3143L8.71277 10.6247L6.37099 8.28515L6.68163 7.53316C6.72943 7.41379 6.83696 7.38992 6.8728 7.37798C6.88475 7.37798 6.90864 7.37798 6.92059 7.37798C6.96838 7.37798 7.04007 7.38992 7.11176 7.4496L9.54913 9.88462C9.64471 9.98011 9.63276 10.0756 9.62081 10.1233M4.87751 12.248C4.84166 12.2599 4.80582 12.2599 4.78192 12.2241C4.75803 12.2003 4.74608 12.1645 4.75803 12.1286L6.06035 9.03714L7.97201 10.9469L4.87751 12.248ZM10.3616 10.2666C10.4213 9.93236 10.3257 9.59814 10.0868 9.35942L7.64941 6.9244C7.41046 6.68568 7.06397 6.57825 6.74137 6.64987C6.40683 6.70955 6.13203 6.93634 6.00061 7.24668L4.06505 11.8302C3.93362 12.1525 4.00531 12.5106 4.24427 12.7493C4.41154 12.9164 4.61465 13 4.84166 13C4.94919 13 5.06867 12.9761 5.16425 12.9284L9.75224 10.9947C10.0629 10.8634 10.2899 10.5889 10.3496 10.2546" fill="var(--fill-0, #FFED62)"/>
</g>
</svg>
