<svg preserveAspectRatio="none" width="100%" height="100%" overflow="visible" style="display: block;" viewBox="0 0 12.802 6.99767" fill="none" xmlns="http://www.w3.org/2000/svg">
<g id="Group">
<path id="Vector" d="M2.00897 2.73087C1.62041 2.6209 0.999081 2.47462 0.319027 2.65598C0.192703 2.68964 0.106905 2.74538 0.0467762 2.85113C0.0167997 2.90396 -0.0108034 2.9611 0.00422886 3.01939C0.0172392 3.06888 0.088005 3.08628 0.144793 3.09534C0.199472 3.10395 0.323334 3.11046 0.356739 3.07064C0.374145 3.0498 0.374584 2.99126 0.283864 2.97218C0.250371 2.96515 0.15921 2.96198 0.152266 2.9466C0.152266 2.9466 0.15543 2.93596 0.20545 2.92049C0.227515 2.91363 0.389617 2.84691 0.832496 2.86124C1.35915 2.87821 1.81917 3.00154 2.30565 3.19309C2.78168 3.38051 3.31659 3.71948 3.63034 4.12307C3.74901 4.27576 3.89635 4.52665 3.91577 4.7379C3.9628 5.25093 3.46173 5.68387 2.44437 5.64915C2.27049 5.64317 2.05916 5.60194 2.05916 5.60194L2.03806 4.61149C2.03806 4.61149 2.46855 4.60823 2.94448 4.76488C2.98501 4.77825 3.02571 4.80471 3.0294 4.844C3.03204 4.87424 3.00821 4.90017 2.9814 4.92356C2.93209 4.96663 2.86422 4.98536 2.84928 5.00364C2.83846 5.01683 2.83838 5.03696 2.85244 5.04803C2.88822 5.07573 2.97604 5.09454 3.03529 5.08935C3.15528 5.07871 3.2351 5.00936 3.29541 4.91846C3.35967 4.82158 3.39624 4.57527 3.05437 4.41818C2.61245 4.21502 2.0349 4.25326 2.0349 4.25326C2.0349 4.25326 2.03191 4.11894 2.02593 4.02954C2.016 3.88291 1.97539 3.59466 1.84177 3.51158C1.81733 3.49655 1.78735 3.49479 1.77047 3.51756C1.74454 3.5514 1.71905 3.68037 1.71342 3.71386C1.66314 4.01371 1.66577 4.28262 1.66314 4.2864C1.66164 4.28816 1.66006 4.28965 1.65795 4.29124C1.65268 4.29458 1.33331 4.33273 1.02501 4.46626C0.901943 4.51953 0.725952 4.6157 0.672592 4.73948C0.60376 4.89921 0.724809 5.07406 0.929195 5.26763C1.10229 5.43158 1.35748 5.60414 1.54657 5.69345C1.59474 5.71622 1.65136 5.74426 1.65136 5.74426C1.65136 5.74426 1.66358 5.85872 1.67342 5.92483C1.70894 6.16315 1.89064 6.12842 1.94075 6.11822C2.02215 6.10161 2.0378 6.04746 2.04905 5.98469C2.05521 5.95041 2.05266 5.90083 2.05266 5.90083C2.05266 5.90083 2.17573 5.92922 2.25836 5.94425C2.4987 5.98865 2.75979 5.9963 2.98606 5.96544C3.89107 5.84175 4.1191 5.4154 4.19119 5.30156C4.31646 5.10359 4.5822 4.55206 3.78171 3.73337C3.59887 3.54631 3.07028 3.03117 2.00879 2.73079L2.00897 2.73087ZM0.81386 4.96215C0.780982 4.92822 0.755665 4.89147 0.763401 4.84708C0.770785 4.80427 0.854649 4.76647 0.89702 4.75398C1.30526 4.63364 1.65127 4.62748 1.65127 4.62748C1.65127 4.62748 1.64802 4.77394 1.64731 4.92206C1.64599 5.20266 1.65338 5.48749 1.65338 5.48749C1.65338 5.48749 1.19292 5.35334 0.81386 4.96206V4.96215Z" fill="var(--fill-0, white)"/>
<path id="Vector_2" d="M4.95374 3.93705C5.14512 3.86207 5.29289 3.75447 5.44251 3.60133C5.52989 3.51246 5.60655 3.36627 5.57841 3.23308C5.56435 3.16689 5.53411 3.12127 5.47881 3.07362C5.4513 3.04997 5.38827 3.01657 5.33702 3.00637C5.32216 3.00338 5.30634 3.00224 5.29992 2.99811C5.29263 2.99345 5.28682 2.98387 5.2797 2.97499C5.24621 2.93244 5.17966 2.89174 5.13184 2.8753C4.98504 2.82449 4.78918 2.86282 4.65547 2.91917C4.51411 2.97903 4.38375 3.06676 4.28468 3.17296C4.02473 3.45162 4.13892 3.67236 4.16204 3.7135C4.18174 3.74831 4.21822 3.78585 4.22622 3.82224C4.23105 3.84387 4.22674 3.87217 4.22762 3.89776C4.22947 3.95639 4.25496 4.01687 4.299 4.05581C4.33056 4.08359 4.37592 4.09186 4.42155 4.02267C4.43684 3.99947 4.46234 3.95226 4.46234 3.95226C4.46234 3.95226 4.51535 3.98294 4.64343 3.99191C4.7389 3.99859 4.8697 3.96984 4.95374 3.93705ZM4.3405 3.60028C4.3405 3.60028 4.33162 3.58173 4.3259 3.56775C4.28652 3.46982 4.37346 3.35941 4.45284 3.29172C4.60739 3.16003 4.7389 3.1632 4.7389 3.1632C4.7389 3.1632 4.70742 3.18843 4.68132 3.21128C4.45574 3.40864 4.3405 3.60028 4.3405 3.60028ZM4.67877 3.59667C4.77327 3.47483 4.9482 3.32363 5.07022 3.25084C5.16578 3.19379 5.24832 3.17814 5.30994 3.20522C5.34651 3.22131 5.37579 3.25445 5.3808 3.29884C5.39715 3.43624 5.23856 3.55105 5.13255 3.61293C4.89159 3.7535 4.60659 3.72168 4.5993 3.70893C4.59824 3.70559 4.65696 3.62542 4.67885 3.59667H4.67877Z" fill="var(--fill-0, white)"/>
<path id="Vector_3" d="M10.4194 4.33892C10.1127 4.1261 9.61789 4.80097 9.40023 5.13563C9.36779 4.96527 9.48304 4.7491 9.48304 4.7491C9.48304 4.7491 9.66782 4.42912 9.69402 4.36415C9.71925 4.29875 9.73393 4.16434 9.70219 4.15098C9.67336 4.1377 9.6236 4.18078 9.6236 4.18078C9.20859 4.55324 9.15057 4.9665 9.15057 4.9665C9.11136 5.18899 9.15716 5.34529 9.2245 5.45465C8.99383 5.94614 8.88096 6.37487 8.91102 6.62831C8.93898 6.82126 9.07726 6.96077 9.16112 6.99022C9.24586 7.02556 9.2609 6.92368 9.2609 6.92368C9.32955 6.3994 9.44946 6.04891 9.59231 5.70246C10.0249 5.80189 10.3504 5.38072 10.4657 5.1795C10.5334 5.05871 10.5699 4.8974 10.5699 4.74567C10.5699 4.57285 10.5224 4.4125 10.4194 4.33884V4.33892ZM10.1375 5.17466C10.0878 5.22178 9.92346 5.31426 9.753 5.33343C9.91546 5.01854 10.1172 4.78681 10.229 4.66322C10.3591 4.51667 10.3762 4.64977 10.3762 4.64977C10.4065 4.90839 10.2183 5.10302 10.1374 5.17475L10.1375 5.17466Z" fill="var(--fill-0, white)"/>
<path id="Vector_4" d="M9.00035 5.42796C9.02101 5.3492 8.94936 5.26287 8.88457 5.24679C8.82409 5.2343 8.35985 5.32133 8.30438 5.33628C8.24469 5.35228 8.27133 5.29619 8.27133 5.29619L8.34306 5.05348C8.34306 5.05348 8.78612 5.03642 8.85064 5.02561C8.91024 5.01489 8.91385 4.97278 8.91385 4.97278C8.91385 4.97278 8.9215 4.90333 8.9193 4.83845C8.91279 4.76901 8.85723 4.77543 8.85723 4.77543C8.6859 4.75749 8.4504 4.77771 8.4504 4.77771L8.50982 4.59143C8.50982 4.59143 8.9811 4.56849 9.16034 4.52717C9.25238 4.50546 9.19823 4.41509 9.19823 4.41509C9.0865 4.19163 8.95771 4.2042 8.95771 4.2042C8.58701 4.19181 8.04831 4.29009 7.98958 4.31918C7.93464 4.34415 7.94062 4.38555 8.01227 4.47584C8.08918 4.57095 8.21858 4.56207 8.21858 4.56207L8.10501 4.79705C8.01226 4.80356 7.98044 4.83248 7.98044 4.83248C7.92699 4.88953 8.00075 5.05814 8.00075 5.05814C8.00075 5.05814 7.83979 5.41917 7.95653 5.60985C8.08189 5.81001 8.23019 5.80043 8.23019 5.80043C8.51237 5.821 8.97573 5.52554 9.00044 5.42796H9.00035Z" fill="var(--fill-0, white)"/>
<path id="Vector_5" d="M7.38052 3.99155C7.38052 3.99155 7.31486 3.96087 7.29824 4.02636C7.28154 4.09115 7.30633 4.16025 7.30633 4.16025C7.46975 4.71468 7.50685 5.04223 7.50685 5.04223C7.50685 5.04223 7.51441 5.13857 7.49568 5.14394C7.48258 5.15387 7.46799 5.14016 7.46799 5.14016C7.44927 5.14086 7.27011 4.8403 7.27011 4.8403L7.2353 4.7814C7.03812 4.46327 6.91866 4.35488 6.91866 4.35488C6.8907 4.32868 6.81897 4.25668 6.72957 4.35593C6.64008 4.45579 6.5701 4.77657 6.54188 5.07809C6.51788 5.379 6.53617 5.55025 6.58004 5.62251C6.62839 5.69565 6.72157 5.72061 6.7984 5.65793C6.87963 5.59552 6.86433 5.19853 6.87716 4.99502C6.88947 4.79055 6.9096 4.82712 6.9096 4.82712C6.92754 4.82228 7.02054 5.00935 7.02054 5.00935C7.02054 5.00935 7.26563 5.51113 7.41956 5.58541C7.5755 5.65952 7.70095 5.54023 7.74842 5.42849C7.79668 5.31597 7.8787 4.94377 7.75659 4.53131C7.6337 4.11893 7.38044 3.99155 7.38044 3.99155H7.38052Z" fill="var(--fill-0, white)"/>
<path id="Vector_6" d="M4.84164 5.05128C4.83531 4.91406 4.81896 4.56366 4.78063 4.40534C4.76402 4.33721 4.7365 4.27506 4.66943 4.24948C4.66169 4.24658 4.65273 4.24394 4.64693 4.24297C4.60499 4.2348 4.58091 4.29264 4.56957 4.32138C4.53643 4.40648 4.51252 4.60972 4.50601 4.6731C4.48632 4.86509 4.47032 5.32011 4.50364 5.55192C4.51761 5.64906 4.54961 5.71217 4.64781 5.73248C4.68763 5.74074 4.76015 5.73916 4.79206 5.71877C4.81993 5.70145 4.83936 5.66769 4.84586 5.63868C4.86388 5.5579 4.85685 5.44335 4.85325 5.3572C4.84894 5.25549 4.84639 5.15414 4.84173 5.05128H4.84164Z" fill="var(--fill-0, white)"/>
<path id="Vector_7" d="M6.41699 4.2882C6.20513 4.17559 5.8564 4.17532 5.64067 4.20214C5.41783 4.22974 5.11955 4.29927 4.99218 4.48239C4.94356 4.55227 4.91508 4.6597 4.93741 4.74716C4.95007 4.79578 4.98506 4.8327 5.03587 4.85916C5.12615 4.90619 5.42732 4.91621 5.56155 4.93063C5.68805 4.94416 5.92101 4.96667 6.04944 5.02029C6.04944 5.02029 6.17102 5.06266 6.17023 5.13211C6.16997 5.1664 6.1443 5.19374 6.11828 5.21228C5.92769 5.34731 5.66573 5.38564 5.43277 5.38186C5.35383 5.3808 5.28878 5.36832 5.20861 5.33395C5.1745 5.319 5.13019 5.29175 5.13617 5.24516C5.14575 5.17053 5.23102 5.15215 5.2988 5.15857C5.3366 5.162 5.386 5.17818 5.4231 5.19268C5.57254 5.25167 5.64067 5.30133 5.77218 5.28129C5.82123 5.27382 5.99125 5.23699 6.0141 5.16692C6.01982 5.14987 6.01164 5.13141 5.99907 5.11866C5.98114 5.10029 5.8789 5.06055 5.85112 5.05045C5.751 5.01484 5.5612 4.98223 5.45571 4.97819C5.31735 4.97326 5.12703 5.00157 5.04809 5.11646C4.97697 5.22002 4.96097 5.42845 5.31401 5.60383C5.47813 5.68532 5.67689 5.72153 5.86027 5.7014C5.96505 5.68936 6.26684 5.64242 6.38094 5.40234C6.4423 5.2732 6.43633 5.10073 6.37022 4.97819C6.32679 4.8974 6.2737 4.78989 5.87987 4.74031C5.81693 4.7324 5.35365 4.67877 5.31111 4.67209C5.28755 4.6684 5.17907 4.65556 5.21713 4.61416C5.22786 4.6022 5.26073 4.59341 5.27981 4.58796C5.52305 4.5215 5.83178 4.52906 6.08716 4.51474C6.14421 4.51122 6.27396 4.5034 6.33673 4.48344C6.3965 4.4648 6.44582 4.42252 6.45962 4.35685C6.46648 4.32195 6.44978 4.30552 6.41707 4.28811L6.41699 4.2882Z" fill="var(--fill-0, white)"/>
<path id="Vector_8" d="M12.7408 4.59028H12.0129C12.0049 4.33868 11.9794 4.09026 11.9368 3.84596C11.9295 3.80403 11.893 3.77344 11.8506 3.77344H11.6544C11.6161 3.77344 11.5871 3.80842 11.5942 3.84623C11.64 4.08999 11.6672 4.33842 11.6758 4.59028H10.9363C10.9024 4.59028 10.875 4.61779 10.875 4.65181V4.87501C10.875 4.90903 10.9024 4.93655 10.9363 4.93655H11.6758C11.6672 5.18849 11.6399 5.43683 11.5942 5.6806C11.5871 5.7184 11.6161 5.75338 11.6544 5.75338H11.8506C11.893 5.75338 11.9295 5.72288 11.9368 5.68086C11.9794 5.43656 12.0049 5.18814 12.0129 4.93655H12.7408C12.7746 4.93655 12.802 4.90903 12.802 4.87501V4.65181C12.802 4.61779 12.7746 4.59028 12.7408 4.59028Z" fill="var(--fill-0, white)"/>
<path id="Vector_9" d="M2.71645 1.88599C2.74529 1.90603 2.78573 1.89118 2.81465 1.86014C3.06431 1.59106 3.33744 1.35705 3.64854 1.14458C5.68976 -0.249554 8.68619 -0.0469269 10.4394 1.71984C11.0153 2.29722 11.3323 2.91697 11.4986 3.40407C11.5108 3.43967 11.544 3.46376 11.5814 3.46376H11.7827C11.8246 3.46376 11.8543 3.42253 11.8408 3.38271C11.6227 2.73659 11.2002 2.02735 10.5863 1.45058C8.74605 -0.282872 5.76492 -0.475565 3.68766 0.941772C3.34781 1.1713 3.01015 1.46526 2.71347 1.80125C2.68419 1.83439 2.69413 1.87043 2.71645 1.88599Z" fill="var(--fill-0, white)"/>
</g>
</svg>
