<svg preserveAspectRatio="none" width="100%" height="100%" overflow="visible" style="display: block;" viewBox="0 0 14.3334 11.6667" fill="none" xmlns="http://www.w3.org/2000/svg">
<path id="Icon" d="M8.5 2.5H10.0582C10.2212 2.5 10.3028 2.5 10.3795 2.51842C10.4475 2.53475 10.5125 2.56169 10.5722 2.59824C10.6395 2.63947 10.6971 2.69712 10.8124 2.81242L13.5209 5.52091C13.6362 5.63622 13.6939 5.69387 13.7351 5.76114C13.7716 5.82079 13.7986 5.88582 13.8149 5.95385C13.8333 6.03057 13.8333 6.1121 13.8333 6.27516V8.16667C13.8333 8.4773 13.8333 8.63261 13.7826 8.75512C13.7149 8.91847 13.5851 9.04826 13.4218 9.11592C13.2993 9.16667 13.144 9.16667 12.8333 9.16667M9.5 9.16667H8.5M8.5 9.16667V2.63333C8.5 1.8866 8.5 1.51323 8.35468 1.22801C8.22684 0.97713 8.02287 0.773156 7.77199 0.645325C7.48677 0.500001 7.1134 0.500001 6.36667 0.500001H2.63333C1.8866 0.500001 1.51323 0.500001 1.22801 0.645325C0.97713 0.773156 0.773156 0.97713 0.645325 1.22801C0.500001 1.51323 0.500001 1.8866 0.500001 2.63333V7.83333C0.500001 8.56971 1.09695 9.16667 1.83333 9.16667M8.5 9.16667H5.83333M5.83333 9.16667C5.83333 10.2712 4.9379 11.1667 3.83333 11.1667C2.72876 11.1667 1.83333 10.2712 1.83333 9.16667M5.83333 9.16667C5.83333 8.0621 4.9379 7.16667 3.83333 7.16667C2.72876 7.16667 1.83333 8.0621 1.83333 9.16667M12.8333 9.5C12.8333 10.4205 12.0871 11.1667 11.1667 11.1667C10.2462 11.1667 9.5 10.4205 9.5 9.5C9.5 8.57953 10.2462 7.83333 11.1667 7.83333C12.0871 7.83333 12.8333 8.57953 12.8333 9.5Z" stroke="var(--stroke-0, white)" stroke-linecap="round" stroke-linejoin="round"/>
</svg>
